<mxfile host="app.diagrams.net" modified="2023-09-19T09:02:55.371Z" agent="Mozilla/5.0 (Windows NT 10.0; Win64; x64) AppleWebKit/537.36 (KHTML, like Gecko) Chrome/116.0.0.0 Safari/537.36" etag="Gk9i__EtC-5qLjeQ5wri" version="21.7.5" type="onedrive">
  <diagram name="Page-1" id="IaHXjAaXGk3TE67QyvRG">
    <mxGraphModel grid="1" page="1" gridSize="10" guides="1" tooltips="1" connect="1" arrows="1" fold="1" pageScale="1" pageWidth="827" pageHeight="1169" math="0" shadow="0">
      <root>
        <mxCell id="0" />
        <mxCell id="1" parent="0" />
        <mxCell id="32oh0dkfHJm1UcrSGn8B-2" value="" style="ellipse;html=1;shape=startState;fillColor=#000000;strokeColor=#ff0000;" vertex="1" parent="1">
          <mxGeometry x="40" y="385" width="30" height="30" as="geometry" />
        </mxCell>
        <mxCell id="32oh0dkfHJm1UcrSGn8B-3" value="" style="edgeStyle=orthogonalEdgeStyle;html=1;verticalAlign=bottom;endArrow=open;endSize=8;strokeColor=#ff0000;rounded=0;entryX=0;entryY=0.5;entryDx=0;entryDy=0;" edge="1" parent="1" source="32oh0dkfHJm1UcrSGn8B-2" target="32oh0dkfHJm1UcrSGn8B-4">
          <mxGeometry relative="1" as="geometry">
            <mxPoint x="35" y="475" as="targetPoint" />
          </mxGeometry>
        </mxCell>
        <mxCell id="32oh0dkfHJm1UcrSGn8B-4" value="&lt;b&gt;&lt;font style=&quot;font-size: 18px;&quot;&gt;Order product&lt;/font&gt;&lt;/b&gt;" style="rounded=1;whiteSpace=wrap;html=1;arcSize=40;fontColor=#000000;fillColor=#ffffc0;strokeColor=#ff0000;" vertex="1" parent="1">
          <mxGeometry x="140" y="365" width="120" height="70" as="geometry" />
        </mxCell>
        <mxCell id="32oh0dkfHJm1UcrSGn8B-6" value="&lt;font style=&quot;font-size: 18px;&quot;&gt;&lt;b&gt;Buy product&lt;/b&gt;&lt;/font&gt;" style="rounded=1;whiteSpace=wrap;html=1;arcSize=40;fontColor=#000000;fillColor=#ffffc0;strokeColor=#ff0000;" vertex="1" parent="1">
          <mxGeometry x="330" y="365" width="120" height="70" as="geometry" />
        </mxCell>
        <mxCell id="32oh0dkfHJm1UcrSGn8B-7" value="" style="edgeStyle=orthogonalEdgeStyle;html=1;verticalAlign=bottom;endArrow=open;endSize=8;strokeColor=#ff0000;rounded=0;entryX=0;entryY=0.5;entryDx=0;entryDy=0;exitX=1;exitY=0.5;exitDx=0;exitDy=0;" edge="1" parent="1" source="32oh0dkfHJm1UcrSGn8B-4" target="32oh0dkfHJm1UcrSGn8B-6">
          <mxGeometry relative="1" as="geometry">
            <mxPoint x="180" y="410" as="targetPoint" />
            <mxPoint x="60" y="410" as="sourcePoint" />
          </mxGeometry>
        </mxCell>
        <mxCell id="32oh0dkfHJm1UcrSGn8B-8" value="&lt;font style=&quot;font-size: 14px;&quot;&gt;Successful payment&lt;/font&gt;" style="text;html=1;strokeColor=none;fillColor=none;align=center;verticalAlign=middle;whiteSpace=wrap;rounded=0;" vertex="1" parent="1">
          <mxGeometry x="470" y="365" width="70" height="30" as="geometry" />
        </mxCell>
        <mxCell id="32oh0dkfHJm1UcrSGn8B-9" value="&lt;font style=&quot;font-size: 18px;&quot;&gt;&lt;b&gt;Email invoice&lt;/b&gt;&lt;/font&gt;" style="rounded=1;whiteSpace=wrap;html=1;arcSize=40;fontColor=#000000;fillColor=#ffffc0;strokeColor=#ff0000;" vertex="1" parent="1">
          <mxGeometry x="550" y="365" width="130" height="70" as="geometry" />
        </mxCell>
        <mxCell id="32oh0dkfHJm1UcrSGn8B-10" value="" style="edgeStyle=orthogonalEdgeStyle;html=1;verticalAlign=bottom;endArrow=open;endSize=8;strokeColor=#ff0000;rounded=0;entryX=0;entryY=0.5;entryDx=0;entryDy=0;exitX=1;exitY=0.5;exitDx=0;exitDy=0;" edge="1" parent="1" source="32oh0dkfHJm1UcrSGn8B-6" target="32oh0dkfHJm1UcrSGn8B-9">
          <mxGeometry relative="1" as="geometry">
            <mxPoint x="700" y="399.47" as="targetPoint" />
            <mxPoint x="550" y="399.47" as="sourcePoint" />
          </mxGeometry>
        </mxCell>
        <mxCell id="32oh0dkfHJm1UcrSGn8B-12" value="" style="edgeStyle=orthogonalEdgeStyle;html=1;verticalAlign=bottom;endArrow=open;endSize=8;strokeColor=#ff0000;rounded=0;exitX=0.75;exitY=1;exitDx=0;exitDy=0;entryX=0.5;entryY=1;entryDx=0;entryDy=0;" edge="1" parent="1" source="32oh0dkfHJm1UcrSGn8B-6" target="32oh0dkfHJm1UcrSGn8B-4">
          <mxGeometry relative="1" as="geometry">
            <mxPoint x="500" y="507.5" as="targetPoint" />
            <mxPoint x="460" y="410" as="sourcePoint" />
            <Array as="points">
              <mxPoint x="420" y="508" />
              <mxPoint x="200" y="508" />
            </Array>
          </mxGeometry>
        </mxCell>
        <mxCell id="32oh0dkfHJm1UcrSGn8B-13" value="&lt;font style=&quot;font-size: 14px;&quot;&gt;Unsuccessful payment&amp;nbsp;&lt;/font&gt;" style="text;html=1;strokeColor=none;fillColor=none;align=center;verticalAlign=middle;whiteSpace=wrap;rounded=0;" vertex="1" parent="1">
          <mxGeometry x="324" y="470" width="90" height="30" as="geometry" />
        </mxCell>
        <mxCell id="32oh0dkfHJm1UcrSGn8B-18" value="" style="ellipse;html=1;shape=endState;fillColor=#000000;strokeColor=#ff0000;" vertex="1" parent="1">
          <mxGeometry x="780" y="385" width="30" height="30" as="geometry" />
        </mxCell>
        <mxCell id="32oh0dkfHJm1UcrSGn8B-19" value="" style="edgeStyle=orthogonalEdgeStyle;html=1;verticalAlign=bottom;endArrow=open;endSize=8;strokeColor=#ff0000;rounded=0;entryX=0;entryY=0.5;entryDx=0;entryDy=0;exitX=1;exitY=0.5;exitDx=0;exitDy=0;" edge="1" parent="1" source="32oh0dkfHJm1UcrSGn8B-9" target="32oh0dkfHJm1UcrSGn8B-18">
          <mxGeometry relative="1" as="geometry">
            <mxPoint x="580" y="410" as="targetPoint" />
            <mxPoint x="460" y="410" as="sourcePoint" />
          </mxGeometry>
        </mxCell>
        <mxCell id="32oh0dkfHJm1UcrSGn8B-20" value="&lt;font style=&quot;font-size: 14px;&quot;&gt;go online&lt;/font&gt;" style="text;html=1;strokeColor=none;fillColor=none;align=center;verticalAlign=middle;whiteSpace=wrap;rounded=0;" vertex="1" parent="1">
          <mxGeometry x="70" y="365" width="70" height="30" as="geometry" />
        </mxCell>
        <mxCell id="32oh0dkfHJm1UcrSGn8B-22" value="&lt;font style=&quot;font-size: 14px;&quot;&gt;go offline&lt;/font&gt;" style="text;html=1;strokeColor=none;fillColor=none;align=center;verticalAlign=middle;whiteSpace=wrap;rounded=0;" vertex="1" parent="1">
          <mxGeometry x="700" y="365" width="70" height="30" as="geometry" />
        </mxCell>
      </root>
    </mxGraphModel>
  </diagram>
</mxfile>
